<mxfile host="app.diagrams.net" modified="2020-12-23T10:56:29.536Z" agent="5.0 (X11; Linux x86_64) AppleWebKit/537.36 (KHTML, like Gecko) Chrome/87.0.4280.66 Safari/537.36" etag="GlbcEwzUE7UuHCN9Zv-t" version="14.1.1" type="github" pages="2">
  <diagram id="LsY3n9CnqGCvU9-dlRnW" name="001">
    <mxGraphModel dx="1663" dy="737" grid="1" gridSize="10" guides="1" tooltips="1" connect="1" arrows="1" fold="1" page="1" pageScale="1" pageWidth="1920" pageHeight="1200" math="0" shadow="0">
      <root>
        <mxCell id="FwvMESewa7GjfpeRXs3q-0" />
        <mxCell id="FwvMESewa7GjfpeRXs3q-1" parent="FwvMESewa7GjfpeRXs3q-0" />
      </root>
    </mxGraphModel>
  </diagram>
  <diagram name="000" id="e7e014a7-5840-1c2e-5031-d8a46d1fe8dd">
    <mxGraphModel dx="1138" dy="590" grid="1" gridSize="10" guides="1" tooltips="1" connect="1" arrows="1" fold="1" page="1" pageScale="1" pageWidth="1920" pageHeight="1200" background="#ffffff" math="0" shadow="1">
      <root>
        <mxCell id="0" />
        <mxCell id="1" parent="0" />
        <mxCell id="iFogylqvE2eTUU4uMYc8-110" value="" style="edgeStyle=orthogonalEdgeStyle;rounded=0;orthogonalLoop=1;jettySize=auto;html=1;strokeColor=#67AB9F;" edge="1" parent="1" source="iFogylqvE2eTUU4uMYc8-97">
          <mxGeometry relative="1" as="geometry">
            <mxPoint x="752" y="390" as="targetPoint" />
            <Array as="points">
              <mxPoint x="752" y="390" />
            </Array>
          </mxGeometry>
        </mxCell>
        <mxCell id="iFogylqvE2eTUU4uMYc8-42" value=":钉钉客户端" style="shape=umlLifeline;perimeter=lifelinePerimeter;whiteSpace=wrap;html=1;container=1;collapsible=0;recursiveResize=0;outlineConnect=0;" vertex="1" parent="1">
          <mxGeometry x="280" y="120" width="130" height="840" as="geometry" />
        </mxCell>
        <mxCell id="iFogylqvE2eTUU4uMYc8-65" value="" style="html=1;points=[];perimeter=orthogonalPerimeter;" vertex="1" parent="iFogylqvE2eTUU4uMYc8-42">
          <mxGeometry x="60" y="60" width="10" height="60" as="geometry" />
        </mxCell>
        <mxCell id="iFogylqvE2eTUU4uMYc8-43" value=":钉钉服务端" style="shape=umlLifeline;perimeter=lifelinePerimeter;whiteSpace=wrap;html=1;container=1;collapsible=0;recursiveResize=0;outlineConnect=0;" vertex="1" parent="1">
          <mxGeometry x="480" y="120" width="130" height="840" as="geometry" />
        </mxCell>
        <mxCell id="iFogylqvE2eTUU4uMYc8-67" value="" style="html=1;points=[];perimeter=orthogonalPerimeter;" vertex="1" parent="iFogylqvE2eTUU4uMYc8-43">
          <mxGeometry x="60" y="70" width="10" height="40" as="geometry" />
        </mxCell>
        <mxCell id="iFogylqvE2eTUU4uMYc8-86" value="" style="html=1;points=[];perimeter=orthogonalPerimeter;" vertex="1" parent="iFogylqvE2eTUU4uMYc8-43">
          <mxGeometry x="60" y="170" width="10" height="60" as="geometry" />
        </mxCell>
        <mxCell id="iFogylqvE2eTUU4uMYc8-112" value="" style="html=1;points=[];perimeter=orthogonalPerimeter;" vertex="1" parent="iFogylqvE2eTUU4uMYc8-43">
          <mxGeometry x="60" y="260" width="10" height="340" as="geometry" />
        </mxCell>
        <mxCell id="iFogylqvE2eTUU4uMYc8-44" value=":聚石塔代理" style="shape=umlLifeline;perimeter=lifelinePerimeter;whiteSpace=wrap;html=1;container=1;collapsible=0;recursiveResize=0;outlineConnect=0;" vertex="1" parent="1">
          <mxGeometry x="680" y="120" width="130" height="840" as="geometry" />
        </mxCell>
        <mxCell id="iFogylqvE2eTUU4uMYc8-109" value="" style="html=1;points=[];perimeter=orthogonalPerimeter;" vertex="1" parent="iFogylqvE2eTUU4uMYc8-44">
          <mxGeometry x="60" y="260" width="10" height="340" as="geometry" />
        </mxCell>
        <mxCell id="iFogylqvE2eTUU4uMYc8-45" value=":飞巴H5" style="shape=umlLifeline;perimeter=lifelinePerimeter;whiteSpace=wrap;html=1;container=1;collapsible=0;recursiveResize=0;outlineConnect=0;" vertex="1" parent="1">
          <mxGeometry x="880" y="120" width="130" height="840" as="geometry" />
        </mxCell>
        <mxCell id="iFogylqvE2eTUU4uMYc8-77" value="" style="html=1;points=[];perimeter=orthogonalPerimeter;" vertex="1" parent="iFogylqvE2eTUU4uMYc8-45">
          <mxGeometry x="60" y="130" width="10" height="510" as="geometry" />
        </mxCell>
        <mxCell id="iFogylqvE2eTUU4uMYc8-143" value="获取用户信息" style="text;html=1;align=center;verticalAlign=middle;resizable=0;points=[];autosize=1;" vertex="1" parent="iFogylqvE2eTUU4uMYc8-45">
          <mxGeometry x="15" y="477" width="90" height="20" as="geometry" />
        </mxCell>
        <mxCell id="iFogylqvE2eTUU4uMYc8-46" value=":飞巴系统" style="shape=umlLifeline;perimeter=lifelinePerimeter;whiteSpace=wrap;html=1;container=1;collapsible=0;recursiveResize=0;outlineConnect=0;" vertex="1" parent="1">
          <mxGeometry x="1080" y="120" width="130" height="840" as="geometry" />
        </mxCell>
        <mxCell id="iFogylqvE2eTUU4uMYc8-139" value="" style="edgeStyle=orthogonalEdgeStyle;rounded=0;orthogonalLoop=1;jettySize=auto;html=1;strokeColor=#000000;" edge="1" parent="iFogylqvE2eTUU4uMYc8-46">
          <mxGeometry relative="1" as="geometry">
            <mxPoint x="72" y="453" as="sourcePoint" />
            <mxPoint x="72" y="480" as="targetPoint" />
            <Array as="points">
              <mxPoint x="130" y="453" />
              <mxPoint x="130" y="480" />
            </Array>
          </mxGeometry>
        </mxCell>
        <mxCell id="iFogylqvE2eTUU4uMYc8-97" value="" style="html=1;points=[];perimeter=orthogonalPerimeter;" vertex="1" parent="iFogylqvE2eTUU4uMYc8-46">
          <mxGeometry x="60" y="140" width="10" height="500" as="geometry" />
        </mxCell>
        <mxCell id="iFogylqvE2eTUU4uMYc8-63" value=":企业员工" style="shape=umlLifeline;perimeter=lifelinePerimeter;whiteSpace=wrap;html=1;container=1;collapsible=0;recursiveResize=0;outlineConnect=0;" vertex="1" parent="1">
          <mxGeometry x="80" y="120" width="130" height="840" as="geometry" />
        </mxCell>
        <mxCell id="iFogylqvE2eTUU4uMYc8-64" value="" style="html=1;points=[];perimeter=orthogonalPerimeter;" vertex="1" parent="iFogylqvE2eTUU4uMYc8-63">
          <mxGeometry x="60" y="60" width="10" height="100" as="geometry" />
        </mxCell>
        <mxCell id="iFogylqvE2eTUU4uMYc8-68" value="" style="edgeStyle=orthogonalEdgeStyle;rounded=0;orthogonalLoop=1;jettySize=auto;html=1;strokeColor=#000000;" edge="1" parent="1" source="iFogylqvE2eTUU4uMYc8-65" target="iFogylqvE2eTUU4uMYc8-67">
          <mxGeometry relative="1" as="geometry">
            <Array as="points">
              <mxPoint x="490" y="200" />
              <mxPoint x="490" y="200" />
            </Array>
          </mxGeometry>
        </mxCell>
        <mxCell id="iFogylqvE2eTUU4uMYc8-70" value="" style="edgeStyle=orthogonalEdgeStyle;rounded=0;orthogonalLoop=1;jettySize=auto;html=1;dashed=1;strokeColor=#000000;" edge="1" parent="1" target="iFogylqvE2eTUU4uMYc8-65">
          <mxGeometry relative="1" as="geometry">
            <mxPoint x="540" y="223" as="sourcePoint" />
            <mxPoint x="460" y="210" as="targetPoint" />
            <Array as="points">
              <mxPoint x="400" y="223" />
              <mxPoint x="400" y="223" />
            </Array>
          </mxGeometry>
        </mxCell>
        <mxCell id="iFogylqvE2eTUU4uMYc8-71" value="登录" style="text;html=1;align=center;verticalAlign=middle;resizable=0;points=[];autosize=1;" vertex="1" parent="1">
          <mxGeometry x="220" y="170" width="40" height="20" as="geometry" />
        </mxCell>
        <mxCell id="iFogylqvE2eTUU4uMYc8-72" value="登录" style="text;html=1;align=center;verticalAlign=middle;resizable=0;points=[];autosize=1;" vertex="1" parent="1">
          <mxGeometry x="420" y="180" width="40" height="20" as="geometry" />
        </mxCell>
        <mxCell id="iFogylqvE2eTUU4uMYc8-73" value="登录成功" style="text;html=1;align=center;verticalAlign=middle;resizable=0;points=[];autosize=1;" vertex="1" parent="1">
          <mxGeometry x="410" y="204" width="60" height="20" as="geometry" />
        </mxCell>
        <mxCell id="iFogylqvE2eTUU4uMYc8-76" value="" style="edgeStyle=orthogonalEdgeStyle;rounded=0;orthogonalLoop=1;jettySize=auto;html=1;strokeColor=#000000;entryX=-0.2;entryY=0.193;entryDx=0;entryDy=0;entryPerimeter=0;" edge="1" parent="1" source="iFogylqvE2eTUU4uMYc8-64" target="iFogylqvE2eTUU4uMYc8-65">
          <mxGeometry relative="1" as="geometry">
            <mxPoint x="230" y="230" as="targetPoint" />
            <Array as="points">
              <mxPoint x="245" y="192" />
            </Array>
          </mxGeometry>
        </mxCell>
        <mxCell id="iFogylqvE2eTUU4uMYc8-78" value="" style="edgeStyle=orthogonalEdgeStyle;rounded=0;orthogonalLoop=1;jettySize=auto;html=1;strokeColor=#000000;" edge="1" parent="1" source="iFogylqvE2eTUU4uMYc8-64">
          <mxGeometry relative="1" as="geometry">
            <mxPoint x="940" y="260" as="targetPoint" />
            <Array as="points">
              <mxPoint x="350" y="260" />
              <mxPoint x="350" y="260" />
            </Array>
          </mxGeometry>
        </mxCell>
        <mxCell id="iFogylqvE2eTUU4uMYc8-79" value="进入飞巴差旅微应用" style="text;html=1;align=center;verticalAlign=middle;resizable=0;points=[];autosize=1;" vertex="1" parent="1">
          <mxGeometry x="460" y="240" width="120" height="20" as="geometry" />
        </mxCell>
        <mxCell id="iFogylqvE2eTUU4uMYc8-88" value="获取微应用免登授权码（JSAPI）" style="text;html=1;align=center;verticalAlign=middle;resizable=0;points=[];autosize=1;" vertex="1" parent="1">
          <mxGeometry x="650" y="280" width="190" height="20" as="geometry" />
        </mxCell>
        <mxCell id="iFogylqvE2eTUU4uMYc8-90" value="" style="edgeStyle=orthogonalEdgeStyle;rounded=0;orthogonalLoop=1;jettySize=auto;html=1;strokeColor=#000000;entryX=1.4;entryY=0.213;entryDx=0;entryDy=0;entryPerimeter=0;" edge="1" parent="1" source="iFogylqvE2eTUU4uMYc8-77" target="iFogylqvE2eTUU4uMYc8-86">
          <mxGeometry relative="1" as="geometry">
            <mxPoint x="860" y="325" as="targetPoint" />
            <Array as="points">
              <mxPoint x="850" y="303" />
              <mxPoint x="850" y="303" />
            </Array>
          </mxGeometry>
        </mxCell>
        <mxCell id="iFogylqvE2eTUU4uMYc8-92" value="" style="edgeStyle=orthogonalEdgeStyle;rounded=0;orthogonalLoop=1;jettySize=auto;html=1;strokeColor=#000000;dashed=1;" edge="1" parent="1" source="iFogylqvE2eTUU4uMYc8-86">
          <mxGeometry relative="1" as="geometry">
            <mxPoint x="940" y="340" as="targetPoint" />
            <Array as="points">
              <mxPoint x="650" y="340" />
              <mxPoint x="650" y="340" />
            </Array>
          </mxGeometry>
        </mxCell>
        <mxCell id="iFogylqvE2eTUU4uMYc8-93" value="返回微应用免登授权码（auth_code）" style="text;html=1;align=center;verticalAlign=middle;resizable=0;points=[];autosize=1;" vertex="1" parent="1">
          <mxGeometry x="630" y="320" width="220" height="20" as="geometry" />
        </mxCell>
        <mxCell id="iFogylqvE2eTUU4uMYc8-98" value="" style="edgeStyle=orthogonalEdgeStyle;rounded=0;orthogonalLoop=1;jettySize=auto;html=1;strokeColor=#000000;" edge="1" parent="1" source="iFogylqvE2eTUU4uMYc8-77">
          <mxGeometry relative="1" as="geometry">
            <mxPoint x="1138" y="270" as="targetPoint" />
            <Array as="points">
              <mxPoint x="1000" y="270" />
              <mxPoint x="1000" y="270" />
            </Array>
          </mxGeometry>
        </mxCell>
        <mxCell id="iFogylqvE2eTUU4uMYc8-99" value="获取corpId" style="text;html=1;align=center;verticalAlign=middle;resizable=0;points=[];autosize=1;" vertex="1" parent="1">
          <mxGeometry x="1010" y="250" width="70" height="20" as="geometry" />
        </mxCell>
        <mxCell id="iFogylqvE2eTUU4uMYc8-101" value="" style="edgeStyle=orthogonalEdgeStyle;rounded=0;orthogonalLoop=1;jettySize=auto;html=1;strokeColor=#000000;dashed=1;" edge="1" parent="1" source="iFogylqvE2eTUU4uMYc8-97">
          <mxGeometry relative="1" as="geometry">
            <mxPoint x="952" y="294" as="targetPoint" />
            <Array as="points">
              <mxPoint x="1100" y="294" />
              <mxPoint x="1100" y="294" />
            </Array>
          </mxGeometry>
        </mxCell>
        <mxCell id="iFogylqvE2eTUU4uMYc8-103" value="返回corpId" style="text;html=1;align=center;verticalAlign=middle;resizable=0;points=[];autosize=1;" vertex="1" parent="1">
          <mxGeometry x="1010" y="272" width="70" height="20" as="geometry" />
        </mxCell>
        <mxCell id="iFogylqvE2eTUU4uMYc8-105" value="" style="edgeStyle=orthogonalEdgeStyle;rounded=0;orthogonalLoop=1;jettySize=auto;html=1;strokeColor=#000000;" edge="1" parent="1" source="iFogylqvE2eTUU4uMYc8-77">
          <mxGeometry relative="1" as="geometry">
            <mxPoint x="1140" y="359" as="targetPoint" />
            <Array as="points">
              <mxPoint x="1140" y="359" />
            </Array>
          </mxGeometry>
        </mxCell>
        <mxCell id="iFogylqvE2eTUU4uMYc8-106" value="登录" style="text;html=1;align=center;verticalAlign=middle;resizable=0;points=[];autosize=1;" vertex="1" parent="1">
          <mxGeometry x="1025" y="340" width="40" height="20" as="geometry" />
        </mxCell>
        <mxCell id="iFogylqvE2eTUU4uMYc8-111" value="获取企业凭证access_token" style="text;html=1;align=center;verticalAlign=middle;resizable=0;points=[];autosize=1;" vertex="1" parent="1">
          <mxGeometry x="850" y="370" width="160" height="20" as="geometry" />
        </mxCell>
        <mxCell id="iFogylqvE2eTUU4uMYc8-113" style="edgeStyle=orthogonalEdgeStyle;rounded=0;orthogonalLoop=1;jettySize=auto;html=1;strokeColor=#000000;" edge="1" parent="1" source="iFogylqvE2eTUU4uMYc8-109">
          <mxGeometry relative="1" as="geometry">
            <mxPoint x="553" y="394" as="targetPoint" />
            <Array as="points">
              <mxPoint x="700" y="394" />
              <mxPoint x="700" y="394" />
            </Array>
          </mxGeometry>
        </mxCell>
        <mxCell id="iFogylqvE2eTUU4uMYc8-114" value="获取企业凭证access_token" style="text;html=1;align=center;verticalAlign=middle;resizable=0;points=[];autosize=1;" vertex="1" parent="1">
          <mxGeometry x="570" y="370" width="160" height="20" as="geometry" />
        </mxCell>
        <mxCell id="iFogylqvE2eTUU4uMYc8-115" style="edgeStyle=orthogonalEdgeStyle;rounded=0;orthogonalLoop=1;jettySize=auto;html=1;strokeColor=#000000;" edge="1" parent="1" source="iFogylqvE2eTUU4uMYc8-112" target="iFogylqvE2eTUU4uMYc8-109">
          <mxGeometry relative="1" as="geometry">
            <Array as="points">
              <mxPoint x="640" y="430" />
              <mxPoint x="640" y="430" />
            </Array>
          </mxGeometry>
        </mxCell>
        <mxCell id="iFogylqvE2eTUU4uMYc8-116" value="返回企业凭证access_token" style="text;html=1;align=center;verticalAlign=middle;resizable=0;points=[];autosize=1;" vertex="1" parent="1">
          <mxGeometry x="570" y="407" width="160" height="20" as="geometry" />
        </mxCell>
        <mxCell id="iFogylqvE2eTUU4uMYc8-117" style="edgeStyle=orthogonalEdgeStyle;rounded=0;orthogonalLoop=1;jettySize=auto;html=1;strokeColor=#67AB9F;dashed=1;" edge="1" parent="1" source="iFogylqvE2eTUU4uMYc8-109">
          <mxGeometry relative="1" as="geometry">
            <mxPoint x="1140" y="450" as="targetPoint" />
            <Array as="points">
              <mxPoint x="820" y="450" />
              <mxPoint x="820" y="450" />
            </Array>
          </mxGeometry>
        </mxCell>
        <mxCell id="iFogylqvE2eTUU4uMYc8-118" value="返回企业凭证access_token" style="text;html=1;align=center;verticalAlign=middle;resizable=0;points=[];autosize=1;" vertex="1" parent="1">
          <mxGeometry x="850" y="427" width="160" height="20" as="geometry" />
        </mxCell>
        <mxCell id="iFogylqvE2eTUU4uMYc8-127" value="" style="edgeStyle=orthogonalEdgeStyle;rounded=0;orthogonalLoop=1;jettySize=auto;html=1;strokeColor=#67AB9F;" edge="1" parent="1" source="iFogylqvE2eTUU4uMYc8-97">
          <mxGeometry relative="1" as="geometry">
            <mxPoint x="752" y="496" as="targetPoint" />
            <Array as="points">
              <mxPoint x="752" y="496" />
            </Array>
          </mxGeometry>
        </mxCell>
        <mxCell id="iFogylqvE2eTUU4uMYc8-128" value="获取用户userid" style="text;html=1;align=center;verticalAlign=middle;resizable=0;points=[];autosize=1;" vertex="1" parent="1">
          <mxGeometry x="890" y="470" width="100" height="20" as="geometry" />
        </mxCell>
        <mxCell id="iFogylqvE2eTUU4uMYc8-130" value="" style="edgeStyle=orthogonalEdgeStyle;rounded=0;orthogonalLoop=1;jettySize=auto;html=1;" edge="1" parent="1">
          <mxGeometry relative="1" as="geometry">
            <mxPoint x="740" y="510" as="sourcePoint" />
            <mxPoint x="552" y="510" as="targetPoint" />
            <Array as="points">
              <mxPoint x="680" y="510" />
              <mxPoint x="680" y="510" />
            </Array>
          </mxGeometry>
        </mxCell>
        <mxCell id="iFogylqvE2eTUU4uMYc8-131" value="获取用户userid" style="text;html=1;align=center;verticalAlign=middle;resizable=0;points=[];autosize=1;" vertex="1" parent="1">
          <mxGeometry x="590" y="486" width="100" height="20" as="geometry" />
        </mxCell>
        <mxCell id="iFogylqvE2eTUU4uMYc8-133" value="" style="edgeStyle=orthogonalEdgeStyle;rounded=0;orthogonalLoop=1;jettySize=auto;html=1;strokeColor=#000000;" edge="1" parent="1" source="iFogylqvE2eTUU4uMYc8-112">
          <mxGeometry relative="1" as="geometry">
            <mxPoint x="740" y="540" as="targetPoint" />
            <Array as="points">
              <mxPoint x="740" y="540" />
            </Array>
          </mxGeometry>
        </mxCell>
        <mxCell id="iFogylqvE2eTUU4uMYc8-134" value="返回用户userid" style="text;html=1;align=center;verticalAlign=middle;resizable=0;points=[];autosize=1;" vertex="1" parent="1">
          <mxGeometry x="590" y="518" width="100" height="20" as="geometry" />
        </mxCell>
        <mxCell id="iFogylqvE2eTUU4uMYc8-136" value="" style="edgeStyle=orthogonalEdgeStyle;rounded=0;orthogonalLoop=1;jettySize=auto;html=1;dashed=1;strokeColor=#67AB9F;" edge="1" parent="1" source="iFogylqvE2eTUU4uMYc8-109">
          <mxGeometry relative="1" as="geometry">
            <mxPoint x="1140" y="560" as="targetPoint" />
            <Array as="points">
              <mxPoint x="840" y="560" />
              <mxPoint x="840" y="560" />
            </Array>
          </mxGeometry>
        </mxCell>
        <mxCell id="iFogylqvE2eTUU4uMYc8-137" value="返回用户userid" style="text;html=1;align=center;verticalAlign=middle;resizable=0;points=[];autosize=1;" vertex="1" parent="1">
          <mxGeometry x="890" y="534" width="100" height="20" as="geometry" />
        </mxCell>
        <mxCell id="iFogylqvE2eTUU4uMYc8-140" value="登录" style="text;html=1;align=center;verticalAlign=middle;resizable=0;points=[];autosize=1;" vertex="1" parent="1">
          <mxGeometry x="1220" y="576" width="40" height="20" as="geometry" />
        </mxCell>
        <mxCell id="iFogylqvE2eTUU4uMYc8-142" value="" style="edgeStyle=orthogonalEdgeStyle;rounded=0;orthogonalLoop=1;jettySize=auto;html=1;strokeColor=#67AB9F;" edge="1" parent="1" source="iFogylqvE2eTUU4uMYc8-97">
          <mxGeometry relative="1" as="geometry">
            <mxPoint x="751" y="620" as="targetPoint" />
            <Array as="points">
              <mxPoint x="751" y="620" />
            </Array>
          </mxGeometry>
        </mxCell>
        <mxCell id="iFogylqvE2eTUU4uMYc8-144" value="" style="edgeStyle=orthogonalEdgeStyle;rounded=0;orthogonalLoop=1;jettySize=auto;html=1;" edge="1" parent="1" source="iFogylqvE2eTUU4uMYc8-109">
          <mxGeometry relative="1" as="geometry">
            <mxPoint x="552" y="640" as="targetPoint" />
            <Array as="points">
              <mxPoint x="552" y="640" />
            </Array>
          </mxGeometry>
        </mxCell>
        <mxCell id="iFogylqvE2eTUU4uMYc8-145" value="获取用户信息" style="text;html=1;align=center;verticalAlign=middle;resizable=0;points=[];autosize=1;" vertex="1" parent="1">
          <mxGeometry x="610" y="613" width="90" height="20" as="geometry" />
        </mxCell>
        <mxCell id="iFogylqvE2eTUU4uMYc8-146" value="" style="edgeStyle=orthogonalEdgeStyle;rounded=0;orthogonalLoop=1;jettySize=auto;html=1;dashed=1;" edge="1" parent="1" source="iFogylqvE2eTUU4uMYc8-112">
          <mxGeometry relative="1" as="geometry">
            <mxPoint x="740" y="680" as="targetPoint" />
            <Array as="points">
              <mxPoint x="740" y="680" />
            </Array>
          </mxGeometry>
        </mxCell>
        <mxCell id="iFogylqvE2eTUU4uMYc8-148" value="" style="edgeStyle=orthogonalEdgeStyle;rounded=0;orthogonalLoop=1;jettySize=auto;html=1;dashed=1;strokeColor=#67AB9F;" edge="1" parent="1" source="iFogylqvE2eTUU4uMYc8-109">
          <mxGeometry relative="1" as="geometry">
            <mxPoint x="1139" y="698" as="targetPoint" />
            <Array as="points">
              <mxPoint x="840" y="698" />
              <mxPoint x="840" y="698" />
            </Array>
          </mxGeometry>
        </mxCell>
        <mxCell id="iFogylqvE2eTUU4uMYc8-149" value="返回用户信息" style="text;html=1;align=center;verticalAlign=middle;resizable=0;points=[];autosize=1;" vertex="1" parent="1">
          <mxGeometry x="600" y="655" width="90" height="20" as="geometry" />
        </mxCell>
        <mxCell id="iFogylqvE2eTUU4uMYc8-150" value="返回用户信息" style="text;html=1;align=center;verticalAlign=middle;resizable=0;points=[];autosize=1;" vertex="1" parent="1">
          <mxGeometry x="895" y="670" width="90" height="20" as="geometry" />
        </mxCell>
        <mxCell id="iFogylqvE2eTUU4uMYc8-152" value="" style="edgeStyle=orthogonalEdgeStyle;rounded=0;orthogonalLoop=1;jettySize=auto;html=1;dashed=1;entryX=1;entryY=0.974;entryDx=0;entryDy=0;entryPerimeter=0;" edge="1" parent="1" source="iFogylqvE2eTUU4uMYc8-97" target="iFogylqvE2eTUU4uMYc8-77">
          <mxGeometry relative="1" as="geometry">
            <mxPoint x="1060" y="510" as="targetPoint" />
            <Array as="points">
              <mxPoint x="1100" y="747" />
              <mxPoint x="1100" y="747" />
            </Array>
          </mxGeometry>
        </mxCell>
        <mxCell id="iFogylqvE2eTUU4uMYc8-153" value="登录成功，重定向页面" style="text;html=1;align=center;verticalAlign=middle;resizable=0;points=[];autosize=1;" vertex="1" parent="1">
          <mxGeometry x="975" y="720" width="140" height="20" as="geometry" />
        </mxCell>
      </root>
    </mxGraphModel>
  </diagram>
</mxfile>
